<mxfile host="app.diagrams.net" agent="Mozilla/5.0 (Windows NT 10.0; Win64; x64) AppleWebKit/537.36 (KHTML, like Gecko) Chrome/138.0.0.0 Safari/537.36" version="27.2.0">
  <diagram name="Page-1" id="9puum_7bB_8Ls2rKnQzw">
    <mxGraphModel grid="0" page="0" gridSize="10" guides="1" tooltips="1" connect="1" arrows="1" fold="1" pageScale="1" pageWidth="850" pageHeight="1100" math="0" shadow="0">
      <root>
        <mxCell id="0" />
        <mxCell id="1" parent="0" />
        <mxCell id="i19Y0AwOucV5XpXeKmzI-15" value="&lt;font style=&quot;font-size: 18px; font-weight: normal;&quot;&gt;Modular Monolith: Module Dependencies Diagram&lt;/font&gt;" style="swimlane;whiteSpace=wrap;html=1;fillColor=#ffe6cc;strokeColor=#d79b00;" vertex="1" parent="1">
          <mxGeometry x="-140" width="747" height="547" as="geometry" />
        </mxCell>
        <mxCell id="i19Y0AwOucV5XpXeKmzI-5" value="" style="edgeStyle=none;curved=1;rounded=0;orthogonalLoop=1;jettySize=auto;html=1;fontSize=12;startSize=8;endSize=8;" edge="1" parent="i19Y0AwOucV5XpXeKmzI-15" source="i19Y0AwOucV5XpXeKmzI-1" target="i19Y0AwOucV5XpXeKmzI-2">
          <mxGeometry relative="1" as="geometry" />
        </mxCell>
        <mxCell id="i19Y0AwOucV5XpXeKmzI-16" style="edgeStyle=none;curved=1;rounded=0;orthogonalLoop=1;jettySize=auto;html=1;entryX=0.412;entryY=0.01;entryDx=0;entryDy=0;fontSize=12;startSize=8;endSize=8;exitX=1;exitY=0.75;exitDx=0;exitDy=0;entryPerimeter=0;dashed=1;dashPattern=12 12;" edge="1" parent="i19Y0AwOucV5XpXeKmzI-15" source="i19Y0AwOucV5XpXeKmzI-1" target="i19Y0AwOucV5XpXeKmzI-4">
          <mxGeometry relative="1" as="geometry" />
        </mxCell>
        <mxCell id="i19Y0AwOucV5XpXeKmzI-7" value="" style="edgeStyle=none;curved=1;rounded=0;orthogonalLoop=1;jettySize=auto;html=1;fontSize=12;startSize=8;endSize=8;" edge="1" parent="i19Y0AwOucV5XpXeKmzI-15" source="i19Y0AwOucV5XpXeKmzI-4" target="i19Y0AwOucV5XpXeKmzI-2">
          <mxGeometry relative="1" as="geometry" />
        </mxCell>
        <mxCell id="i19Y0AwOucV5XpXeKmzI-9" style="edgeStyle=none;curved=1;rounded=0;orthogonalLoop=1;jettySize=auto;html=1;fontSize=12;startSize=8;endSize=8;" edge="1" parent="i19Y0AwOucV5XpXeKmzI-15" source="i19Y0AwOucV5XpXeKmzI-4" target="i19Y0AwOucV5XpXeKmzI-1">
          <mxGeometry relative="1" as="geometry" />
        </mxCell>
        <mxCell id="i19Y0AwOucV5XpXeKmzI-12" style="edgeStyle=none;curved=1;rounded=0;orthogonalLoop=1;jettySize=auto;html=1;fontSize=12;startSize=8;endSize=8;" edge="1" parent="i19Y0AwOucV5XpXeKmzI-15" source="i19Y0AwOucV5XpXeKmzI-4" target="i19Y0AwOucV5XpXeKmzI-3">
          <mxGeometry relative="1" as="geometry" />
        </mxCell>
        <mxCell id="i19Y0AwOucV5XpXeKmzI-1" value="Subscription Module" style="rounded=0;whiteSpace=wrap;html=1;fontSize=18;fillColor=#fff2cc;strokeColor=#d6b656;" vertex="1" parent="i19Y0AwOucV5XpXeKmzI-15">
          <mxGeometry x="49" y="87" width="120" height="60" as="geometry" />
        </mxCell>
        <mxCell id="i19Y0AwOucV5XpXeKmzI-2" value="Weather Module" style="rounded=0;whiteSpace=wrap;html=1;fontSize=18;fillColor=#dae8fc;strokeColor=#6c8ebf;" vertex="1" parent="i19Y0AwOucV5XpXeKmzI-15">
          <mxGeometry x="511" y="87" width="120" height="60" as="geometry" />
        </mxCell>
        <mxCell id="i19Y0AwOucV5XpXeKmzI-6" value="&lt;font&gt;cityExists()&lt;/font&gt;" style="text;html=1;align=center;verticalAlign=middle;resizable=0;points=[];autosize=1;strokeColor=#6c8ebf;fillColor=#dae8fc;fontSize=14;" vertex="1" parent="i19Y0AwOucV5XpXeKmzI-15">
          <mxGeometry x="297" y="81" width="86" height="29" as="geometry" />
        </mxCell>
        <mxCell id="i19Y0AwOucV5XpXeKmzI-17" value="SubscriptionCreated&lt;div&gt;SubscriptionConfirmed&lt;/div&gt;" style="text;html=1;align=left;verticalAlign=middle;resizable=0;points=[];autosize=1;strokeColor=#b85450;fillColor=#f8cecc;fontSize=14;rotation=36;" vertex="1" parent="i19Y0AwOucV5XpXeKmzI-15">
          <mxGeometry x="239" y="180" width="160" height="46" as="geometry" />
        </mxCell>
        <mxCell id="i19Y0AwOucV5XpXeKmzI-11" value="updateSubscriptionEmailStatus()" style="text;html=1;align=center;verticalAlign=middle;resizable=0;points=[];autosize=1;strokeColor=#d6b656;fillColor=#fff2cc;fontSize=14;rotation=36;" vertex="1" parent="i19Y0AwOucV5XpXeKmzI-15">
          <mxGeometry x="212" y="289" width="222" height="29" as="geometry" />
        </mxCell>
        <mxCell id="i19Y0AwOucV5XpXeKmzI-10" value="findSubscriptionEntityById()" style="text;html=1;align=center;verticalAlign=middle;resizable=0;points=[];autosize=1;strokeColor=#d6b656;fillColor=#fff2cc;fontSize=14;rotation=36;" vertex="1" parent="i19Y0AwOucV5XpXeKmzI-15">
          <mxGeometry x="195" y="308" width="190" height="29" as="geometry" />
        </mxCell>
        <mxCell id="i19Y0AwOucV5XpXeKmzI-3" value="Email Module" style="rounded=0;whiteSpace=wrap;html=1;fontSize=18;fillColor=#d5e8d4;strokeColor=#82b366;" vertex="1" parent="i19Y0AwOucV5XpXeKmzI-15">
          <mxGeometry x="49" y="425" width="120" height="60" as="geometry" />
        </mxCell>
        <mxCell id="i19Y0AwOucV5XpXeKmzI-14" value="sendConfirmationEmail()" style="text;html=1;align=center;verticalAlign=middle;resizable=0;points=[];autosize=1;strokeColor=#82b366;fillColor=#d5e8d4;fontSize=14;" vertex="1" parent="i19Y0AwOucV5XpXeKmzI-15">
          <mxGeometry x="239" y="420" width="172" height="29" as="geometry" />
        </mxCell>
        <mxCell id="i19Y0AwOucV5XpXeKmzI-13" value="sendWeatherUpdate()" style="text;html=1;align=center;verticalAlign=middle;resizable=0;points=[];autosize=1;strokeColor=#82b366;fillColor=#d5e8d4;fontSize=14;" vertex="1" parent="i19Y0AwOucV5XpXeKmzI-15">
          <mxGeometry x="239" y="461" width="155" height="29" as="geometry" />
        </mxCell>
        <mxCell id="i19Y0AwOucV5XpXeKmzI-4" value="Notification Module" style="rounded=0;whiteSpace=wrap;html=1;fontSize=18;fillColor=#f8cecc;strokeColor=#b85450;" vertex="1" parent="i19Y0AwOucV5XpXeKmzI-15">
          <mxGeometry x="511" y="425" width="120" height="60" as="geometry" />
        </mxCell>
        <mxCell id="i19Y0AwOucV5XpXeKmzI-8" value="getCurrentWeather()" style="text;html=1;align=center;verticalAlign=middle;resizable=0;points=[];autosize=1;strokeColor=#6c8ebf;fillColor=#dae8fc;fontSize=14;" vertex="1" parent="i19Y0AwOucV5XpXeKmzI-15">
          <mxGeometry x="582" y="217" width="146" height="29" as="geometry" />
        </mxCell>
      </root>
    </mxGraphModel>
  </diagram>
</mxfile>
